<?xml version="1.0" encoding="utf-8"?>
<svg xmlns="http://www.w3.org/2000/svg" viewBox="0 0 40 40" width="480" height="480">
  <path fill="#a16a4a" d="M6 2H7V21H6z" />
  <path fill="#c2e8ff" d="M1.703,16.5c0.307-0.968,0.797-2.854,0.797-5s-0.491-4.032-0.797-5h13.963 c0.313,0.791,1.12,3.054,1.12,5.357c0,2.259-0.771,4.02-1.084,4.643H1.703z" />
  <path fill="#7496c4" d="M15.323,7c0.349,0.942,0.963,2.881,0.963,4.857c0,1.875-0.565,3.401-0.901,4.143H2.37 C2.666,14.918,3,13.296,3,11.5C3,9.704,2.666,8.082,2.37,7H15.323 M16,6H1c0,0,1,2.508,1,5.5C2,14.492,1,17,1,17h15 c0,0,1.286-2.151,1.286-5.143C17.286,8.865,16,6,16,6L16,6z" />
  <path fill="#a16a4a" d="M30 5H31V25.357H30zM17 1H18V25.429H17z" />
  <path fill="#ffc49c" d="M4.521,33.5c0.052-1.767,0.062-7.523-1.757-12h6.147l1.031,1.798 c0.397,0.747,1.198,1.202,2.135,1.202h14.13l1.977-1.977l7.971,0.886c-3.021,4.958-3.547,8.758-3.637,10.091H4.521z" />
  <path fill="#a16a4a" d="M8.621,22l0.871,1.518C9.985,24.446,10.951,25,12.077,25H26h0.414l0.293-0.293l1.66-1.66 l6.962,0.774c-2.441,4.231-3.094,7.579-3.268,9.18H5.031c0.029-2.104-0.088-6.934-1.542-11H8.621 M9.2,21H2 c2.448,5.235,2,13,2,13h29c0,0-0.095-4.625,4-11l-9-1l-2,2H12.077c-0.713,0-1.367-0.322-1.702-0.951L9.2,21L9.2,21z" />
  <path fill="#ffc49c" d="M3,23.5c-0.771,0-1.5-0.729-1.5-1.5v-2.5h6.217l2.4,4H3z" />
  <path fill="#a16a4a" d="M7.434,20l1.8,3H3c-0.486,0-1-0.514-1-1v-2H7.434 M8,19H1v3c0,1.04,0.96,2,2,2h8L8,19L8,19z" />
  <path fill="#ffc49c" d="M27,23.5l2.25-3h8.979l-0.898,2.008C37.124,23.12,36.597,23.5,36,23.5H27z" />
  <path fill="#a16a4a" d="M37.457,21l-0.583,1.304l-0.02,0.045l-0.016,0.047C36.718,22.757,36.381,23,36,23h-8l1.5-2H37.457 M39,20H29l-3,4h10c0.811,0,1.531-0.519,1.787-1.288L39,20L39,20z" />
  <path fill="#c2e8ff" d="M11.651,20.5c0.292-1.19,0.849-3.931,0.849-7.5c0-3.57-0.557-6.31-0.849-7.5h14.967 C26.865,6.461,27.5,9.295,27.5,13c0,3.704-0.635,6.538-0.882,7.5H11.651z" />
  <path fill="#7496c4" d="M26.226,6C26.504,7.182,27,9.75,27,13c0,3.25-0.496,5.817-0.774,7H12.279 C12.585,18.583,13,16.095,13,13c0-3.095-0.415-5.583-0.721-7H26.226 M27,5H11c0,0,1,3.286,1,8c0,4.714-1,8-1,8h16c0,0,1-3.286,1-8 C28,8.286,27,5,27,5L27,5z" />
  <path fill="#c2e8ff" d="M23.716,18.5c0.308-0.92,0.784-2.643,0.784-4.5s-0.476-3.58-0.784-4.5h13.041 c0.436,0.581,1.744,2.49,1.744,4.5c0,2.017-1.307,3.921-1.743,4.5H23.716z" />
  <path fill="#7496c4" d="M36.502,10C36.997,10.7,38,12.326,38,14c0,1.675-1.004,3.301-1.498,4H24.394 C24.684,16.992,25,15.541,25,14c0-1.541-0.316-2.992-0.606-4H36.502 M37,9H23c0,0,1,2.382,1,5c0,2.618-1,5-1,5h14c0,0,2-2.382,2-5 C39,11.382,37,9,37,9L37,9z" />
  <g>
    <path fill="#f78f8f" d="M6.5,2.5h0.857c0.939,0,1.709,0.802,2.455,1.576c0.288,0.299,0.568,0.592,0.857,0.833 c-0.241,0.049-0.467,0.073-0.68,0.073c-0.457,0-0.799-0.113-1.13-0.223C8.55,4.657,8.231,4.552,7.861,4.552 c-0.44,0-0.873,0.146-1.361,0.472V2.5z" />
    <path fill="#c74343" d="M7.357,3C8.08,3,8.773,3.718,9.443,4.415C9.3,4.379,9.162,4.334,9.015,4.285 c-0.33-0.109-0.704-0.233-1.154-0.233c-0.29,0-0.573,0.049-0.861,0.153V3H7.357 M7.357,2C6.093,2,6,2,6,2v4.071 c0.848-0.791,1.391-1.019,1.861-1.019c0.645,0,1.153,0.431,2.127,0.431C10.501,5.483,11.142,5.364,12,5 C10.621,4.979,9.439,2,7.357,2L7.357,2z" />
  </g>
  <g>
    <path fill="#f78f8f" d="M30.5,5.5h0.857c0.939,0,1.709,0.802,2.455,1.576c0.288,0.299,0.568,0.592,0.857,0.833 c-0.241,0.049-0.467,0.073-0.68,0.073c-0.457,0-0.799-0.113-1.13-0.223c-0.309-0.103-0.627-0.208-0.998-0.208 c-0.44,0-0.873,0.146-1.361,0.472V5.5z" />
    <path fill="#c74343" d="M31.357,6c0.723,0,1.416,0.718,2.086,1.415c-0.143-0.035-0.281-0.081-0.428-0.13 c-0.33-0.109-0.704-0.233-1.154-0.233c-0.29,0-0.573,0.049-0.861,0.153V6H31.357 M31.357,5C30.093,5,30,5,30,5v4.071 c0.848-0.791,1.391-1.019,1.861-1.019c0.645,0,1.153,0.431,2.127,0.431C34.501,8.483,35.142,8.364,36,8 C34.621,7.979,33.439,5,31.357,5L31.357,5z" />
  </g>
  <g>
    <path fill="#f78f8f" d="M17.5,1.5h0.857c2.163,0,4.123,0.913,5.698,1.646c0.23,0.107,0.45,0.21,0.659,0.304 c-0.256,0.031-0.516,0.047-0.783,0.047c-0.507,0-0.982-0.051-1.486-0.104c-0.501-0.054-1.019-0.109-1.564-0.109 c-1.174,0-2.244,0.268-3.381,0.855V1.5z" />
    <path fill="#c74343" d="M18.357,2c1.362,0,2.658,0.391,3.824,0.862c-0.415-0.042-0.844-0.078-1.299-0.078 c-1.003,0-1.933,0.181-2.882,0.571V2H18.357 M18.357,1C17.093,1,17,1,17,1v4c1.57-0.979,2.78-1.217,3.882-1.217 c1.043,0,1.989,0.213,3.05,0.213c0.768,0,1.597-0.112,2.568-0.497C25.121,3.479,22.005,1,18.357,1L18.357,1z" />
  </g>
  <path fill="#8bb7f0" d="M1,39h38v-7.123C37.692,31.614,36.148,31,35,31c-1.458,0-3.563,1-5,1c-1.438,0-3.542-1-5-1 s-3.563,1-5,1c-1.438,0-3.542-1-5-1s-3.563,1-5,1c-1.438,0-3.542-1-5-1c-1.148,0-2.692,0.614-4,0.877V39z" />
  <g>
    <path fill="#4e7ab5" d="M35,31c-1.458,0-3.563,1-5,1c-1.438,0-3.542-1-5-1s-3.563,1-5,1c-1.438,0-3.542-1-5-1s-3.563,1-5,1 c-1.438,0-3.542-1-5-1c-1.148,0-2.692,0.614-4,0.877V32.9c0.574-0.103,1.17-0.271,1.754-0.435C3.566,32.237,4.406,32,5,32 s1.434,0.237,2.246,0.465C8.18,32.728,9.146,33,10,33s1.82-0.272,2.754-0.535C13.566,32.237,14.406,32,15,32 s1.434,0.237,2.246,0.465C18.18,32.728,19.146,33,20,33s1.82-0.272,2.754-0.535C23.566,32.237,24.406,32,25,32 s1.434,0.237,2.246,0.465C28.18,32.728,29.146,33,30,33s1.82-0.272,2.754-0.535C33.566,32.237,34.406,32,35,32 s1.434,0.237,2.246,0.465C37.83,32.63,38.426,32.797,39,32.9v-1.023C37.692,31.614,36.148,31,35,31z" />
  </g>
</svg>